<?xml version="1.0" encoding="utf-8"?>
<!-- Generator: Adobe Illustrator 27.7.0, SVG Export Plug-In . SVG Version: 6.00 Build 0)  -->
<svg version="1.1" id="_レイヤー_1" xmlns="http://www.w3.org/2000/svg" xmlns:xlink="http://www.w3.org/1999/xlink" x="0px"
	 y="0px" viewBox="0 0 478 307" style="enable-background:new 0 0 478 307;" xml:space="preserve">
<style type="text/css">
	.st0{fill:#7F7260;}
</style>
<path class="st0" d="M131.2,1.5c0,0,10.4-0.2,17.1-0.6l-0.1,5.2c-5.3,0-8-0.2-10.6-0.3l0.2,5.6c0,0,5.6-0.4,9.4-0.4l-0.1,5.8
	c0,0-8.6-0.5-9.4-0.5l0.4,9l-6.9,0.1C131.3,14.4,131.4,6.7,131.2,1.5L131.2,1.5z"/>
<path class="st0" d="M184,12.9c0.4,6.8-2.9,11.9-8.4,13.1c-5.6,1.2-12.4-2.5-12.8-11.2C162.4,3.4,169,1.1,173.4,1.1
	C177.7,1.2,183.5,2.8,184,12.9L184,12.9z M178.4,13.3C178.3,9.4,177.2,6,173,6c-3.8,0.4-4.9,3.7-4.8,8.1c0.1,3.6,1.6,6.8,4.9,7.2
	C175.6,21.6,178.7,19.7,178.4,13.3L178.4,13.3z"/>
<path class="st0" d="M217.5,21.8l-4.7,4c0,0-4.8-6.4-5.5-7.7l-3.4,0.4l0.2,6.7h-5.2c0,0-0.1-20.9,0-23.7c8-2.1,14.2-0.6,15.7,5.3
	c0.6,3.3-0.5,6.7-4,8.1C210.5,14.9,215.5,20.6,217.5,21.8L217.5,21.8z M209.4,8.3c-0.2-2-1.8-3-5.6-2.7l0.1,7
	C206.9,12.6,209.7,11.4,209.4,8.3z"/>
<path class="st0" d="M232.2,1.5c0,0,9.3-0.4,17.3,0.1L249,6.3c0,0-5.9,0.6-9.9,0.7l0.2,3.6c0,0,6.2-0.3,8.5-0.3l-0.1,5.1
	c0,0-6.2-0.2-8.4-0.4l0.3,4.5c0,0,6.7,0.2,10-0.6l-0.5,6.3c0,0-13.3,0.3-16.7-0.3C232,12.6,232,12.6,232.2,1.5L232.2,1.5z"/>
<path class="st0" d="M275.9,0c4.5,7.3,11.2,20,13.6,25.1c0,0-5.5,0.5-7.3,0.5c0,0-1.2-3.7-2.2-6.1c0,0-3.3,0-8,0.1l-2.3,5.6
	c0,0-3.5-0.6-6-1.1C271.4,7.6,271.7,7.6,275.9,0z M278.3,13.9c-1.1-2.5-2.7-5.6-2.7-5.6l-2.4,5.8C275.7,14.1,278.3,13.9,278.3,13.9
	L278.3,13.9z"/>
<path class="st0" d="M344.1,2l5.4,0.2c0,0-0.2,20.3-0.2,22.3l-4.1,0.3c0,0-0.7-5.3-0.9-9.3c0,0-6.8,0.4-8.7,0.6l-0.9,9.5
	c0,0-4,0.3-5.5,0.3c0,0,0-20.5,0-24.7l5.9-0.1l0.5,9.4L345,10C345,10,344.4,5.1,344.1,2L344.1,2z"/>
<path class="st0" d="M20.5,272.5l-0.2,8.4c-5.7-1.4-12.2,1.7-11.8,8.4c0.3,4.3,3.2,7.9,8.6,7.7c4.5,0,8.3-3.2,8.8-7.3l5.8,7.3
	c-2.3,5.4-8.4,9.5-16.1,9.1c-6.8-0.3-15.2-5.4-15.6-16.6C-0.4,279.4,7.2,271.4,20.5,272.5L20.5,272.5z"/>
<path class="st0" d="M64.3,270.7c6.2,10.1,15.4,27.7,18.8,34.8c0,0-7.6,0.7-10.2,0.7c0,0-1.7-5.1-3-8.4c0,0-4.6,0-11.1,0.2l-3.2,7.8
	c0,0-4.8-0.8-8.3-1.5C58,281.2,58.5,281.2,64.3,270.7L64.3,270.7z M67.6,289.9c-1.5-3.4-3.7-7.7-3.7-7.7l-3.3,8
	C64,290.2,67.6,289.9,67.6,289.9z"/>
<path class="st0" d="M131.4,272.7l7.1-0.2c0,0,0.6,29.4,0.9,32.9c0,0-7.3-0.2-9.5-0.3c0,0,0.3-19.5,0.3-22.5c0,0-8.2,9.4-10.4,12.2
	c0,0-7.5-9.6-11-14.3c0,0,0.8,17.3,0.9,24.8l-8.3,0.1c0,0-0.1-21.3,0.3-32.8l8.4,0.2l9.9,12L131.4,272.7L131.4,272.7z"/>
<path class="st0" d="M180.3,284.4c0.5,10.4-8.3,14.1-16.8,13.8l-0.4,7.5c-5,0.1-4.7,0.2-7.2,0.2c0.1-18.2,0.2-25.4,0.2-32.9
	C169.6,269.8,179.7,274.3,180.3,284.4L180.3,284.4z M171.7,284.2c-0.7-4.6-4.1-5.6-8.7-5.3l0.4,13.5
	C171,293,172.2,287.4,171.7,284.2L171.7,284.2z"/>
<path class="st0" d="M208.9,290.1c-0.3-11.2,6.9-18.1,15.8-18.3c8.1-0.1,14.1,4.4,15,11.6l-8.2,0.8c-0.5-2.9-2.5-5.9-7-5.5
	c-3.9,0.3-6.6,3.3-7.4,8c-0.8,5,0.5,12.3,6.9,13.5c5.8,1.2,9.3-2.6,9.2-6.7l-6.5,0.4V287l13.7,0.5c1.1,10.6-4.7,18-12.9,18.8
	C217.3,307.3,209.2,300.5,208.9,290.1L208.9,290.1z"/>
<path class="st0" d="M286.5,300.8l-6.5,5.5c0,0-6.6-8.8-7.7-10.7l-4.7,0.5l0.2,9.3h-7.2c0,0-0.1-28.9,0-32.8
	c11.1-2.9,19.7-0.9,21.8,7.4c0.9,4.6-0.6,9.3-5.6,11.2C276.8,291.3,283.8,299.2,286.5,300.8L286.5,300.8z M275.3,282.2
	c-0.3-2.7-2.5-4.2-7.8-3.7l0.1,9.7C271.8,288.1,275.8,286.5,275.3,282.2z"/>
<path class="st0" d="M333,288.5c0.5,9.4-3.9,16.5-11.6,18.1c-7.8,1.7-17.2-3.5-17.7-15.5c-0.7-15.8,8.5-19.1,14.5-19.1
	C324.3,272.3,332.2,274.5,333,288.5L333,288.5z M325.2,289c-0.2-5.4-1.7-10.1-7.6-10.1c-5.3,0.6-6.8,5.1-6.6,11.2
	c0.2,5,2.2,9.4,6.8,10C321.3,300.5,325.6,298,325.2,289L325.2,289z"/>
<path class="st0" d="M380.3,272.8c0.7,6.9,0.8,12.7,0.5,17c-0.9,11-5.9,15.3-13.7,15.6c-8.7,0.3-13.2-6.3-14-16.3
	c-0.4-5-0.3-11.9-0.2-16.5h8.5c0,0-1.1,11-0.8,17.2c0.4,6.7,3.3,9.2,6.9,8.8c3.5-0.3,5-4.4,5-11c0-4.3-0.6-9.7-1.4-14.4L380.3,272.8
	L380.3,272.8z"/>
<path class="st0" d="M424,272.2c0,0,6,0.2,8.4,0.2c0,0,0.3,29.8,0,33c0,0-4.3,0.3-8.8,0.3c0,0-11.9-17.6-13.7-20.5l0.3,20.1
	c0,0-4.9,0.3-8.2,0.1c0,0,0.2-21.6,0-32.2l7.3-0.5c0,0,13.7,21.5,14.8,24.1L424,272.2z"/>
<path class="st0" d="M452.7,273c13.6-3.6,25.3,2.5,25.3,15.8c0,11.9-10.1,18.1-24.2,17.2L452.7,273L452.7,273z M459.3,280.8
	c0,0,0,12.6,0.1,17c3.6,0,10.5-1.5,10.6-8.9C470.2,281.8,463.4,279.4,459.3,280.8L459.3,280.8z"/>
<g>
	<path class="st0" d="M165.6,242c1.5-0.9,3.1-0.9,4.9,0.5c-2.4-5.4-8.9-4.1-9.4,0.9c-0.1,0.9,0.1,1.9,0.4,2.8l2.6,6.3
		C162.7,247.5,162.9,243.7,165.6,242L165.6,242z"/>
	<path class="st0" d="M432.8,238.5l14.4,3.3L415.3,198l15.2,6.1l-20.8-32.8h9.7L400,146.8l-13.3,16.8L373,144.8l15.2,6.1L367.5,118
		h9.7l-19.4-24.5L343.9,111l-9-14.3h8.4l-16.8-21.2L314.2,91l-10.3-16.2h16.4l-32.7-41.2l-32.7,41.2h16.4l-32.9,51.9l-7.6-12h8.4
		l-16.8-21.2L206,114.1l-11.3-17.8h12.6L182,64.6l-25.2,31.8h12.6l-21.2,33.5l-7.6-12.1h12.6L127.9,86l-25.2,31.8h12.6l-25.5,40.3
		l-9-11.3l-19.4,24.5h9.7l-20.8,32.8l15.2-6.1l-31.9,43.9l14.4-3.3l-10,13.9l30-6.1l-6.7,23.4h77.4c-0.4-1.4,0.7-2.6,3.1-3.6
		c-3.9-4.5-1.6-8,3.3-11.1c-3.3-0.4-5.8-1.2-8-2.9l-1.9,0.4l1.9-1.7c2.3-0.2,4.3-1.8,6.1-3.7l-5.2-0.4c-0.4,0-0.8-0.1-1.1-0.3
		c-1-0.5-2.7-1.6-2-2.1c1.3-0.9,1.2-1.1,2.7-4.8c1-2.5,4.5-3.4,6.2-3.5c0.2-0.2,0.6-1.5,1.7-2.7c0.4-0.4,1.1-0.5,1.5,0
		c0.8,0.9,0.6,2.4,0.9,2.8c1.9,2,2,4.9,1.7,6.4c0.8,2.2,2.2,3.4,3.9,4.9c5.9,5.1,6.4,11.8,3.9,19.7c3.9-3.2,4-10.1,1.2-14.6
		c-0.3-0.5-2.3-3.2-2.3-3.2c-1.3-1.6-4.8-8.1-0.6-13.6c0.4-0.2,3-3.8,10.8-2.2c7,1.4,9.9,13.5,8,14.4c-3.5-2.8-5.9-2.6-6.6,2.8
		c1.2,9.1-0.6,16.6-11.9,19.1h52.8l41-71.2l-9.4-16.4l6.3-3.6l7.3,12.7l0,0l0,0l7.3-12.7l6.3,3.6l-9.4,16.4l41,71.2h120.4l-6.7-23.4
		l30,6.1L432.8,238.5L432.8,238.5z M108,152.5l-10.9,14.9l-6.4-8.1L108,152.5L108,152.5z M109.1,221.6c2.9,1.7,4.8,3.9,4.2,5
		s-3.5,0.5-6.4-1.2c-0.8-0.5-1.6-1-2.2-1.6c0.2,0.8,0.2,1.7,0.2,2.7c0,3.4-1,6.1-2.2,6.1s-2.2-2.7-2.2-6.1c0-1,0.1-1.9,0.2-2.7
		c-0.6,0.5-1.4,1.1-2.2,1.6c-2.9,1.7-5.8,2.2-6.4,1.2s1.3-3.3,4.2-5c0.8-0.5,1.7-0.9,2.5-1.2c-0.8-0.3-1.6-0.7-2.5-1.2
		c-2.9-1.7-4.8-3.9-4.2-5s3.5-0.5,6.4,1.2c0.8,0.5,1.6,1,2.2,1.6c-0.2-0.8-0.2-1.7-0.2-2.7c0-3.4,1-6.1,2.2-6.1s2.2,2.7,2.2,6.1
		c0,1-0.1,1.9-0.2,2.7c0.6-0.5,1.4-1.1,2.2-1.6c2.9-1.7,5.8-2.2,6.4-1.2s-1.3,3.3-4.2,5c-0.8,0.5-1.7,0.9-2.5,1.2
		C107.4,220.7,108.2,221.1,109.1,221.6z M142,178.1c3.6,2.1,6,4.9,5.2,6.2s-4.3,0.7-8-1.4c-1.1-0.6-2-1.3-2.8-1.9
		c0.2,1,0.3,2.2,0.3,3.4c0,4.2-1.2,7.6-2.7,7.6s-2.7-3.4-2.7-7.6c0-1.2,0.1-2.4,0.3-3.4c-0.8,0.7-1.7,1.3-2.8,1.9
		c-3.7,2.1-7.2,2.8-8,1.4c-0.8-1.3,1.6-4.1,5.2-6.2c1.1-0.6,2.1-1.1,3.1-1.4c-1-0.4-2-0.8-3.1-1.4c-3.7-2.1-6-4.9-5.2-6.2
		s4.3-0.7,8,1.4c1.1,0.6,2,1.3,2.8,1.9c-0.2-1-0.3-2.2-0.3-3.4c0-4.2,1.2-7.6,2.7-7.6s2.7,3.4,2.7,7.6c0,1.2-0.1,2.4-0.3,3.4
		c0.8-0.7,1.7-1.3,2.8-1.9c3.6-2.1,7.2-2.8,8-1.4c0.8,1.3-1.6,4.1-5.2,6.2c-1.1,0.6-2.1,1.1-3.1,1.4
		C139.9,177.1,140.9,177.5,142,178.1z M155.1,140.8l-3.5-5.5l10.5-4.2L155.1,140.8L155.1,140.8z M202.7,132.3l-0.9-1.2l1.3,0.5
		L202.7,132.3z M207.9,139.5l-0.6-0.9l1.8-0.7L207.9,139.5L207.9,139.5z M210,120.7l-3.8-6h7.6L210,120.7L210,120.7z M242.1,147
		l-6.6-9.1l10.3,4.1L242.1,147L242.1,147z M246.9,140.4l-7.4-11.6l22.3-8.8L246.9,140.4L246.9,140.4z M289,155.5c-1,0-2-0.1-2.9-0.1
		c0.7,0.6,1.4,1.2,2.1,1.9c3.4,3.4,5.3,6.9,4.3,7.9s-4.5-0.9-7.9-4.3c-0.7-0.7-1.4-1.4-1.9-2.1c0.1,0.9,0.1,1.9,0.1,2.9
		c0,4.8-1.1,8.7-2.5,8.7s-2.5-3.9-2.5-8.7c0-1,0-2,0.1-2.9c-0.6,0.7-1.2,1.4-1.9,2.1c-3.4,3.4-6.9,5.3-7.9,4.3s0.9-4.5,4.3-7.9
		c0.7-0.7,1.4-1.4,2.1-1.9c-0.9,0.1-1.9,0.1-2.9,0.1c-4.8,0-8.6-1.1-8.6-2.5s3.9-2.5,8.6-2.5c1,0,2,0.1,2.9,0.1
		c-0.7-0.6-1.4-1.2-2.1-1.9c-3.4-3.4-5.3-6.9-4.3-7.9s4.5,0.9,7.9,4.3c0.7,0.7,1.4,1.4,1.9,2.1c-0.1-0.9-0.1-1.9-0.1-2.9
		c0-4.8,1.1-8.7,2.5-8.7s2.5,3.9,2.5,8.7c0,1,0,2-0.1,2.9c0.6-0.7,1.2-1.4,1.9-2.1c3.4-3.4,6.9-5.3,7.9-4.3s-0.9,4.5-4.3,7.9
		c-0.7,0.7-1.4,1.4-2.1,1.9c0.9-0.1,1.9-0.1,2.9-0.1c4.8,0,8.6,1.1,8.6,2.5S293.8,155.5,289,155.5z M318,96.7l-0.1,0.2l-0.1-0.2H318
		L318,96.7z M322,137.9c1.8,1.1,3,2.4,2.6,3.1c-0.4,0.7-2.2,0.3-4-0.7c-0.5-0.3-1-0.6-1.4-1c0.1,0.5,0.1,1.1,0.1,1.7
		c0,2.1-0.6,3.8-1.4,3.8s-1.4-1.7-1.4-3.8c0-0.6,0-1.2,0.1-1.7c-0.4,0.3-0.9,0.7-1.4,1c-1.8,1.1-3.6,1.4-4,0.7s0.8-2,2.6-3.1
		c0.5-0.3,1-0.6,1.5-0.7c-0.5-0.2-1-0.4-1.5-0.7c-1.8-1.1-3-2.4-2.6-3.1c0.4-0.7,2.2-0.3,4,0.7c0.5,0.3,1,0.6,1.4,1
		c-0.1-0.5-0.1-1.1-0.1-1.7c0-2.1,0.6-3.8,1.4-3.8s1.4,1.7,1.4,3.8c0,0.6,0,1.2-0.1,1.7c0.4-0.3,0.9-0.7,1.4-1
		c1.8-1.1,3.6-1.4,4-0.7s-0.8,2-2.6,3.1c-0.5,0.3-1,0.6-1.5,0.7C321,137.3,321.5,137.6,322,137.9z M343.5,125.2l-3.8-5.3l5.7,2.3
		L343.5,125.2z M394.7,217.8c3.6,2.1,6,4.9,5.2,6.2s-4.3,0.7-8-1.4c-1-0.6-2-1.3-2.8-1.9c0.2,1,0.3,2.2,0.3,3.4
		c0,4.2-1.2,7.6-2.7,7.6s-2.7-3.4-2.7-7.6c0-1.2,0.1-2.4,0.3-3.4c-0.8,0.7-1.7,1.3-2.8,1.9c-3.6,2.1-7.2,2.8-8,1.4
		c-0.8-1.3,1.6-4.1,5.2-6.2c1-0.6,2.1-1.1,3.1-1.4c-1-0.4-2-0.8-3.1-1.4c-3.6-2.1-6-4.9-5.2-6.2s4.3-0.7,8,1.4c1,0.6,2,1.3,2.8,1.9
		c-0.2-1-0.3-2.2-0.3-3.4c0-4.2,1.2-7.6,2.7-7.6s2.7,3.4,2.7,7.6c0,1.2-0.1,2.4-0.3,3.4c0.8-0.7,1.7-1.3,2.8-1.9
		c3.6-2.1,7.2-2.8,8-1.4s-1.6,4.1-5.2,6.2c-1,0.6-2.1,1.1-3.1,1.4C392.6,216.8,393.6,217.2,394.7,217.8z"/>
</g>
<path class="st0" d="M315.2,20.2c-5.1,0-9.3-4.2-9.3-9.4c0-4.4,3-8,7-9.1c-0.8-0.2-1.7-0.3-2.6-0.3c-6.3,0-11.4,5.1-11.4,11.4
	s5.1,11.4,11.4,11.4c4.2,0,7.8-2.2,9.8-5.6C318.7,19.7,317,20.2,315.2,20.2L315.2,20.2z"/>
</svg>
