<?xml version="1.0" encoding="UTF-8"?>
<svg id="_レイヤー_1" data-name="レイヤー 1" xmlns="http://www.w3.org/2000/svg" viewBox="0 0 478 307">
  <defs>
    <style>
      .cls-1 {
        fill: #f9f9f9;
      }

      .cls-2 {
        fill: #514c49;
      }
    </style>
  </defs>
  <path class="cls-2" d="m131.25,1.45s10.38-.24,17.09-.55l-.12,5.16c-5.31.04-8-.23-10.65-.31l.23,5.59s5.58-.35,9.4-.39l-.08,5.75s-8.62-.55-9.4-.55l.35,9-6.87.08c.08-10.88.16-18.5.04-23.78Z"/>
  <path class="cls-2" d="m184.03,12.91c.35,6.77-2.85,11.93-8.35,13.1-5.62,1.21-12.41-2.5-12.8-11.19-.51-11.42,6.16-13.77,10.49-13.77,4.37.12,10.1,1.72,10.65,11.85Zm-5.58.35c-.12-3.87-1.21-7.28-5.46-7.28-3.82.43-4.92,3.72-4.8,8.06.12,3.6,1.56,6.81,4.92,7.24,2.5.27,5.58-1.56,5.34-8.02Z"/>
  <path class="cls-2" d="m217.47,21.79l-4.68,3.95s-4.8-6.38-5.54-7.71l-3.39.39.16,6.73h-5.23s-.08-20.89,0-23.67c8.04-2.11,14.2-.63,15.72,5.32.62,3.33-.47,6.73-4.02,8.1,0,0,5.03,5.67,6.98,6.88Zm-8.08-13.46c-.19-1.96-1.79-3.01-5.62-2.66l.08,7c3-.08,5.85-1.25,5.54-4.34Z"/>
  <path class="cls-2" d="m232.21,1.45s9.29-.35,17.32.08l-.47,4.65s-5.89.55-9.91.7l.16,3.64s6.16-.27,8.5-.27l-.08,5.12s-6.2-.24-8.35-.35l.27,4.46s6.71.24,9.99-.63l-.47,6.26s-13.3.31-16.7-.31c-.47-12.17-.43-12.17-.27-23.35Z"/>
  <path class="cls-2" d="m275.9,0c4.45,7.31,11.16,19.99,13.58,25.15,0,0-5.5.51-7.34.51,0,0-1.21-3.68-2.18-6.06,0,0-3.32.04-8,.12l-2.34,5.63s-3.47-.59-5.97-1.06c7.72-16.7,8.04-16.66,12.25-24.29Zm2.38,13.89c-1.09-2.46-2.69-5.59-2.69-5.59l-2.42,5.75c2.54.08,5.11-.16,5.11-.16Z"/>
  <path class="cls-2" d="m344.06,2l5.38.16s-.16,20.3-.16,22.34l-4.1.27s-.7-5.32-.86-9.27c0,0-6.79.35-8.74.59l-.94,9.54s-3.98.27-5.5.27c0,0,.04-20.46,0-24.72l5.85-.08.51,9.35,9.52-.43s-.66-4.97-.97-8.02Z"/>
  <path class="cls-2" d="m20.54,272.46l-.22,8.4c-5.73-1.41-12.21,1.68-11.83,8.4.27,4.33,3.19,7.85,8.59,7.74,4.48-.05,8.26-3.25,8.75-7.26l5.83,7.31c-2.27,5.36-8.43,9.53-16.1,9.1-6.81-.32-15.18-5.42-15.56-16.63-.38-10.07,7.24-18.14,20.53-17.06Z"/>
  <path class="cls-2" d="m64.29,270.67c6.16,10.13,15.45,27.68,18.8,34.83,0,0-7.62.7-10.16.7,0,0-1.67-5.09-3.02-8.4,0,0-4.59.05-11.07.16l-3.24,7.8s-4.81-.81-8.26-1.46c10.7-23.13,11.13-23.07,16.96-33.63Zm3.3,19.23c-1.51-3.41-3.73-7.74-3.73-7.74l-3.35,7.96c3.51.11,7.08-.22,7.08-.22Z"/>
  <path class="cls-2" d="m131.43,272.73l7.13-.22s.65,29.41.92,32.93c0,0-7.29-.16-9.51-.27,0,0,.27-19.55.27-22.48,0,0-8.16,9.37-10.43,12.19,0,0-7.51-9.59-10.97-14.3,0,0,.76,17.33.92,24.75l-8.32.11s-.05-21.29.27-32.82l8.37.16,9.94,12.02,11.4-12.08Z"/>
  <path class="cls-2" d="m180.26,284.43c.54,10.35-8.27,14.14-16.75,13.76l-.38,7.47c-5.02.11-4.7.16-7.24.16.11-18.25.16-25.4.16-32.88,13.56-3.14,23.66,1.35,24.2,11.48Zm-8.59-.22c-.7-4.6-4.05-5.58-8.7-5.31l.43,13.54c7.56.54,8.8-5.04,8.26-8.23Z"/>
  <path class="cls-2" d="m208.95,290.06c-.27-11.21,6.91-18.14,15.83-18.31,8.05-.11,14.15,4.39,15.02,11.59l-8.16.76c-.49-2.92-2.49-5.85-7.02-5.53-3.94.33-6.64,3.3-7.35,8.02-.76,4.98.54,12.3,6.91,13.54,5.83,1.19,9.29-2.6,9.18-6.66l-6.48.38v-6.82l13.67.49c1.08,10.56-4.7,18.04-12.91,18.79-10.32,1.03-18.47-5.85-18.69-16.25Z"/>
  <path class="cls-2" d="m286.51,300.84l-6.48,5.47s-6.64-8.83-7.67-10.67l-4.7.54.22,9.32h-7.24s-.11-28.92,0-32.77c11.13-2.92,19.66-.87,21.77,7.37.86,4.6-.65,9.32-5.56,11.21,0,0,6.97,7.85,9.67,9.53Zm-11.18-18.63c-.27-2.71-2.49-4.17-7.78-3.68l.11,9.69c4.16-.11,8.1-1.73,7.67-6.01Z"/>
  <path class="cls-2" d="m332.97,288.55c.49,9.37-3.94,16.52-11.56,18.14-7.78,1.68-17.18-3.47-17.72-15.49-.7-15.81,8.53-19.06,14.53-19.06,6.05.16,13.99,2.38,14.75,16.41Zm-7.72.49c-.16-5.36-1.67-10.07-7.56-10.07-5.29.6-6.81,5.15-6.64,11.16.16,4.98,2.16,9.42,6.81,10.02,3.46.38,7.72-2.17,7.4-11.1Z"/>
  <path class="cls-2" d="m380.29,272.84c.7,6.88.81,12.73.49,17.01-.86,10.99-5.94,15.33-13.72,15.6-8.7.27-13.18-6.28-13.99-16.3-.43-4.98-.32-11.92-.22-16.52l8.48-.05s-1.08,11-.76,17.22c.38,6.66,3.29,9.21,6.86,8.83,3.51-.33,4.97-4.44,4.97-10.99,0-4.33-.59-9.69-1.35-14.41l9.24-.38Z"/>
  <path class="cls-2" d="m423.98,272.24s6,.22,8.43.22c0,0,.32,29.84.05,32.98,0,0-4.27.32-8.8.32,0,0-11.94-17.6-13.67-20.47l.27,20.15s-4.92.27-8.21.11c0,0,.16-21.61,0-32.17l7.29-.54s13.72,21.45,14.75,24.1l-.11-24.7Z"/>
  <path class="cls-2" d="m452.72,273c13.56-3.58,25.28,2.49,25.28,15.81,0,11.86-10.1,18.09-24.2,17.22l-1.08-33.04Zm6.59,7.8s0,12.62.11,16.95c3.57.05,10.53-1.46,10.64-8.94.11-7.04-6.64-9.42-10.75-8.02Z"/>
  <g>
    <path class="cls-2" d="m165.57,242.04c1.48-.95,3.09-.88,4.88.46-2.38-5.38-8.9-4.11-9.36.92-.09.95.09,1.9.44,2.79l2.55,6.33c-1.36-5.08-1.22-8.88,1.49-10.5Z"/>
    <path class="cls-2" d="m432.77,238.51l14.42,3.34-31.89-43.87,15.25,6.06-20.8-32.81h9.71l-19.41-24.47-13.32,16.79-13.67-18.81,15.25,6.06-20.8-32.81h9.71l-19.41-24.47-13.89,17.51-9.05-14.27h8.41l-16.82-21.2-12.3,15.5-10.27-16.2h16.36l-32.71-41.24-32.71,41.24h16.36l-32.89,51.89-7.62-12.02h8.41l-16.82-21.2-16.38,20.64-11.27-17.78h12.62l-25.24-31.81-25.24,31.81h12.62l-21.21,33.46-7.65-12.07h12.62l-25.24-31.81-25.24,31.81h12.62l-25.55,40.31-8.97-11.31-19.41,24.47h9.71l-20.8,32.81,15.25-6.06-31.89,43.87,14.42-3.34-9.98,13.9,29.95-6.12-6.66,23.36h77.38c-.39-1.41.67-2.59,3.15-3.57-3.91-4.53-1.63-8.04,3.33-11.11-3.31-.37-5.8-1.19-7.98-2.91l-1.92.38,1.89-1.69c2.3-.25,4.29-1.81,6.05-3.68l-5.17-.38c-.39-.03-.78-.14-1.13-.32-1.01-.53-2.7-1.65-1.99-2.13,1.3-.89,1.18-1.15,2.68-4.84,1-2.46,4.53-3.35,6.16-3.52.17-.19.61-1.48,1.69-2.73.38-.44,1.07-.47,1.47-.04.83.9.58,2.38.95,2.78,1.9,2,2,4.92,1.71,6.45.8,2.23,2.16,3.41,3.94,4.94,5.95,5.15,6.42,11.79,3.85,19.71,3.94-3.18,3.97-10.14,1.18-14.55-.31-.49-2.33-3.24-2.33-3.24-1.34-1.61-4.81-8.05-.56-13.57.41-.2,3.02-3.78,10.75-2.25,6.97,1.38,9.93,13.47,8.01,14.45-3.5-2.79-5.95-2.6-6.57,2.75,1.17,9.09-.61,16.61-11.91,19.08h52.79l40.98-71.16-9.41-16.35,6.26-3.63,7.32,12.72v-.02s.02.02.02.02l7.32-12.72,6.26,3.63-9.41,16.35,40.98,71.16h120.4l-6.66-23.36,29.95,6.12-9.98-13.9ZM97.18,167.48l-6.42-8.09,17.28-6.86-10.87,14.95Zm57.94-26.67l-3.48-5.5,10.52-4.18-7.03,9.67Zm47.55-8.49l-.86-1.18,1.28.51-.42.67Zm5.2,7.16l-.64-.88,1.8-.71-1.16,1.59Zm2.16-18.78l-3.8-6h7.61l-3.8,6Zm32.08,26.33l-6.65-9.15,10.32,4.1-3.67,5.05Zm4.83-6.64l-7.38-11.63,22.26-8.84-14.88,20.47Zm70.96-43.44l-.13-.21h.27l-.13.21Zm25.6,28.26l-3.84-5.28,5.74,2.28-1.9,3Z"/>
  </g>
  <path class="cls-1" d="m324.64,133.34c-.38-.66-2.16-.33-3.99.72-.53.3-.99.64-1.39.97.09-.51.14-1.08.14-1.69,0-2.11-.61-3.82-1.37-3.82s-1.37,1.71-1.37,3.82c0,.61.05,1.18.14,1.69-.4-.33-.86-.67-1.39-.97-1.82-1.06-3.61-1.38-3.99-.72-.38.66.79,2.04,2.62,3.1.53.3,1.05.55,1.53.72-.49.18-1.01.42-1.53.72-1.82,1.06-2.99,2.44-2.62,3.1s2.16.33,3.99-.72c.53-.3.99-.64,1.39-.97-.09.51-.14,1.08-.14,1.69,0,2.11.61,3.82,1.37,3.82s1.37-1.71,1.37-3.82c0-.61-.05-1.18-.14-1.69.4.33.86.67,1.39.97,1.82,1.06,3.61,1.38,3.99.72.38-.66-.79-2.04-2.62-3.1-.53-.3-1.05-.55-1.53-.72.49-.18,1.01-.42,1.53-.72,1.82-1.06,2.99-2.44,2.62-3.1Z"/>
  <path class="cls-1" d="m147.23,169.06c-.76-1.31-4.32-.67-7.97,1.44-1.05.61-1.99,1.27-2.78,1.94.18-1.02.29-2.17.29-3.39,0-4.22-1.23-7.64-2.74-7.64s-2.74,3.42-2.74,7.64c0,1.22.1,2.36.29,3.39-.79-.67-1.73-1.33-2.78-1.94-3.65-2.11-7.22-2.76-7.97-1.44-.76,1.31,1.59,4.09,5.23,6.2,1.05.61,2.09,1.09,3.07,1.44-.97.35-2.02.84-3.07,1.44-3.65,2.11-5.99,4.89-5.23,6.2.76,1.31,4.32.67,7.97-1.44,1.05-.61,1.99-1.27,2.78-1.94-.18,1.02-.29,2.17-.29,3.39,0,4.22,1.23,7.64,2.74,7.64s2.74-3.42,2.74-7.64c0-1.22-.1-2.36-.29-3.39.79.67,1.73,1.33,2.78,1.94,3.65,2.11,7.22,2.76,7.97,1.44.76-1.31-1.59-4.09-5.23-6.2-1.05-.61-2.09-1.09-3.07-1.44.97-.35,2.02-.84,3.07-1.44,3.65-2.11,5.99-4.89,5.23-6.2Z"/>
  <path class="cls-1" d="m113.27,214.33c-.61-1.05-3.47-.53-6.39,1.16-.84.49-1.59,1.02-2.23,1.56.15-.82.23-1.74.23-2.71,0-3.38-.98-6.13-2.19-6.13s-2.19,2.74-2.19,6.13c0,.98.08,1.89.23,2.71-.63-.54-1.39-1.07-2.23-1.56-2.92-1.69-5.78-2.21-6.39-1.16s1.27,3.28,4.19,4.97c.84.49,1.68.87,2.46,1.16-.78.28-1.62.67-2.46,1.16-2.92,1.69-4.8,3.92-4.19,4.97.61,1.05,3.47.53,6.39-1.16.84-.49,1.59-1.02,2.23-1.56-.15.82-.23,1.74-.23,2.71,0,3.38.98,6.13,2.19,6.13s2.19-2.74,2.19-6.13c0-.98-.08-1.89-.23-2.71.63.54,1.39,1.07,2.23,1.56,2.92,1.69,5.78,2.21,6.39,1.16.61-1.05-1.27-3.28-4.19-4.97-.84-.49-1.68-.87-2.46-1.16.78-.28,1.62-.67,2.46-1.16,2.92-1.69,4.8-3.92,4.19-4.97Z"/>
  <path class="cls-1" d="m394.67,217.85c-1.05-.61-2.09-1.09-3.07-1.44.97-.35,2.02-.84,3.07-1.44,3.65-2.11,5.99-4.89,5.23-6.2-.76-1.31-4.32-.67-7.97,1.44-1.05.61-1.99,1.27-2.78,1.94.18-1.02.29-2.17.29-3.39,0-4.22-1.23-7.64-2.74-7.64s-2.74,3.42-2.74,7.64c0,1.22.1,2.36.29,3.39-.79-.67-1.73-1.33-2.78-1.94-3.65-2.11-7.22-2.76-7.97-1.44s1.59,4.09,5.23,6.2c1.05.61,2.09,1.09,3.07,1.44-.97.35-2.02.84-3.07,1.44-3.65,2.11-5.99,4.89-5.23,6.2s4.32.67,7.97-1.44c1.05-.61,1.99-1.27,2.78-1.94-.18,1.02-.29,2.17-.29,3.39,0,4.22,1.23,7.64,2.74,7.64s2.74-3.42,2.74-7.64c0-1.22-.1-2.36-.29-3.39.79.67,1.73,1.33,2.78,1.94,3.65,2.11,7.22,2.76,7.97,1.44.76-1.31-1.59-4.09-5.23-6.2Z"/>
  <path class="cls-1" d="m288.99,150.39c-1,0-1.96.05-2.86.14.7-.57,1.41-1.21,2.12-1.92,3.37-3.38,5.3-6.93,4.31-7.92s-4.53.94-7.9,4.32c-.71.71-1.35,1.43-1.92,2.13.09-.9.14-1.86.14-2.86,0-4.78-1.14-8.66-2.54-8.66s-2.54,3.88-2.54,8.66c0,1,.05,1.97.14,2.86-.57-.7-1.21-1.42-1.92-2.13-3.37-3.38-6.91-5.32-7.9-4.32s.94,4.54,4.31,7.92c.71.71,1.42,1.36,2.12,1.92-.89-.09-1.86-.14-2.86-.14-4.77,0-8.63,1.14-8.63,2.54s3.87,2.54,8.63,2.54c1,0,1.96-.05,2.86-.14-.7.57-1.41,1.21-2.12,1.92-3.37,3.38-5.3,6.93-4.31,7.92s4.53-.94,7.9-4.32c.71-.71,1.35-1.43,1.92-2.13-.09.9-.14,1.86-.14,2.86,0,4.78,1.14,8.66,2.54,8.66s2.54-3.88,2.54-8.66c0-1-.05-1.97-.14-2.86.57.7,1.21,1.42,1.92,2.13,3.37,3.38,6.91,5.32,7.9,4.32s-.94-4.54-4.31-7.92c-.71-.71-1.42-1.36-2.12-1.92.89.09,1.86.14,2.86.14,4.77,0,8.63-1.14,8.63-2.54s-3.87-2.54-8.63-2.54Z"/>
  <path class="cls-2" d="m315.24,20.25c-5.15,0-9.33-4.19-9.33-9.35,0-4.36,2.98-8.01,7.01-9.05-.84-.2-1.71-.3-2.61-.3-6.31,0-11.42,5.13-11.42,11.45s5.11,11.45,11.42,11.45c4.18,0,7.83-2.25,9.82-5.6-1.42.88-3.09,1.4-4.89,1.4Z"/>
</svg>